<svg id="visual" viewBox="0 0 900 200" width="900" height="200" xmlns="http://www.w3.org/2000/svg" xmlns:xlink="http://www.w3.org/1999/xlink" version="1.1"><rect x="0" y="0" width="900" height="200" fill="#16161a"></rect><path d="M0 132L21.5 135.8C43 139.7 86 147.3 128.8 144.3C171.7 141.3 214.3 127.7 257.2 128.3C300 129 343 144 385.8 147.5C428.7 151 471.3 143 514.2 141.2C557 139.3 600 143.7 642.8 143.8C685.7 144 728.3 140 771.2 133.8C814 127.7 857 119.3 878.5 115.2L900 111L900 0L878.5 0C857 0 814 0 771.2 0C728.3 0 685.7 0 642.8 0C600 0 557 0 514.2 0C471.3 0 428.7 0 385.8 0C343 0 300 0 257.2 0C214.3 0 171.7 0 128.8 0C86 0 43 0 21.5 0L0 0Z" fill="#232325"></path><path d="M0 123L21.5 124C43 125 86 127 128.8 123.3C171.7 119.7 214.3 110.3 257.2 110.7C300 111 343 121 385.8 126.3C428.7 131.7 471.3 132.3 514.2 131.2C557 130 600 127 642.8 122.2C685.7 117.3 728.3 110.7 771.2 107.7C814 104.7 857 105.3 878.5 105.7L900 106L900 0L878.5 0C857 0 814 0 771.2 0C728.3 0 685.7 0 642.8 0C600 0 557 0 514.2 0C471.3 0 428.7 0 385.8 0C343 0 300 0 257.2 0C214.3 0 171.7 0 128.8 0C86 0 43 0 21.5 0L0 0Z" fill="#1c1c1e"></path><path d="M0 69L21.5 72.2C43 75.3 86 81.7 128.8 80C171.7 78.3 214.3 68.7 257.2 71.7C300 74.7 343 90.3 385.8 98C428.7 105.7 471.3 105.3 514.2 102.8C557 100.3 600 95.7 642.8 93C685.7 90.3 728.3 89.7 771.2 84.7C814 79.7 857 70.3 878.5 65.7L900 61L900 0L878.5 0C857 0 814 0 771.2 0C728.3 0 685.7 0 642.8 0C600 0 557 0 514.2 0C471.3 0 428.7 0 385.8 0C343 0 300 0 257.2 0C214.3 0 171.7 0 128.8 0C86 0 43 0 21.5 0L0 0Z" fill="#151517"></path><path d="M0 51L21.5 54.7C43 58.3 86 65.7 128.8 65.5C171.7 65.3 214.3 57.7 257.2 54.2C300 50.7 343 51.3 385.8 51.2C428.7 51 471.3 50 514.2 50.8C557 51.7 600 54.3 642.8 59.2C685.7 64 728.3 71 771.2 68.2C814 65.3 857 52.7 878.5 46.3L900 40L900 0L878.5 0C857 0 814 0 771.2 0C728.3 0 685.7 0 642.8 0C600 0 557 0 514.2 0C471.3 0 428.7 0 385.8 0C343 0 300 0 257.2 0C214.3 0 171.7 0 128.8 0C86 0 43 0 21.5 0L0 0Z" fill="#0c0c0f"></path><path d="M0 32L21.5 33.5C43 35 86 38 128.8 38.8C171.7 39.7 214.3 38.3 257.2 35.2C300 32 343 27 385.8 28.7C428.7 30.3 471.3 38.7 514.2 41.7C557 44.7 600 42.3 642.8 39.5C685.7 36.7 728.3 33.3 771.2 33.3C814 33.3 857 36.7 878.5 38.3L900 40L900 0L878.5 0C857 0 814 0 771.2 0C728.3 0 685.7 0 642.8 0C600 0 557 0 514.2 0C471.3 0 428.7 0 385.8 0C343 0 300 0 257.2 0C214.3 0 171.7 0 128.8 0C86 0 43 0 21.5 0L0 0Z" fill="#000000"></path></svg>